<svg width="18" height="19" viewBox="0 0 18 19" fill="none" xmlns="http://www.w3.org/2000/svg">
<g clip-path="url(#clip0_52_118)">
<path d="M17.8125 9.5614C17.8125 9.71059 17.7532 9.85366 17.6477 9.95915C17.5423 10.0646 17.3992 10.1239 17.25 10.1239H9.5625V17.8114C9.5625 17.9606 9.50324 18.1037 9.39775 18.2091C9.29226 18.3146 9.14918 18.3739 9 18.3739C8.85082 18.3739 8.70774 18.3146 8.60225 18.2091C8.49676 18.1037 8.4375 17.9606 8.4375 17.8114V10.1239H0.75C0.600816 10.1239 0.457742 10.0646 0.352252 9.95915C0.246763 9.85366 0.1875 9.71059 0.1875 9.5614C0.1875 9.41222 0.246763 9.26914 0.352252 9.16365C0.457742 9.05817 0.600816 8.9989 0.75 8.9989H8.4375V1.3114C8.4375 1.16222 8.49676 1.01914 8.60225 0.913654C8.70774 0.808165 8.85082 0.748901 9 0.748901C9.14918 0.748901 9.29226 0.808165 9.39775 0.913654C9.50324 1.01914 9.5625 1.16222 9.5625 1.3114V8.9989H17.25C17.3992 8.9989 17.5423 9.05817 17.6477 9.16365C17.7532 9.26914 17.8125 9.41222 17.8125 9.5614Z" fill="#52525B"/>
</g>
<defs>
<clipPath id="clip0_52_118">
<rect width="17.625" height="17.625" fill="white" transform="translate(0.1875 0.748901)"/>
</clipPath>
</defs>
</svg>
