<svg width="24" height="17" viewBox="0 0 24 17" fill="none" xmlns="http://www.w3.org/2000/svg">
<g clip-path="url(#clip0_52_106)">
<path d="M22.8375 10.0158C22.7784 10.0602 22.7112 10.0924 22.6396 10.1107C22.568 10.1291 22.4936 10.1331 22.4205 10.1227C22.3473 10.1122 22.277 10.0875 22.2134 10.0498C22.1498 10.0122 22.0943 9.96243 22.05 9.90333C21.5806 9.27231 20.9696 8.76032 20.2661 8.4086C19.5627 8.05688 18.7865 7.87525 18 7.87833C17.8508 7.87833 17.7077 7.81907 17.6023 7.71358C17.4968 7.60809 17.4375 7.46502 17.4375 7.31583C17.4375 7.16665 17.4968 7.02357 17.6023 6.91809C17.7077 6.8126 17.8508 6.75333 18 6.75333C18.4559 6.75323 18.9026 6.6253 19.2894 6.38405C19.6762 6.14281 19.9876 5.79792 20.1882 5.38857C20.3889 4.97922 20.4707 4.52181 20.4244 4.0683C20.3781 3.61478 20.2055 3.18334 19.9263 2.82297C19.6471 2.4626 19.2725 2.18775 18.8449 2.02964C18.4173 1.87153 17.954 1.83649 17.5075 1.9285C17.061 2.02052 16.6492 2.2359 16.319 2.55019C15.9888 2.86447 15.7533 3.26506 15.6394 3.70646C15.6021 3.85092 15.5089 3.97465 15.3804 4.05042C15.2519 4.1262 15.0985 4.14782 14.9541 4.11052C14.8096 4.07322 14.6859 3.98007 14.6101 3.85155C14.5343 3.72303 14.5127 3.56967 14.55 3.42521C14.6914 2.8753 14.9622 2.36715 15.3398 1.94312C15.7174 1.51909 16.1909 1.19146 16.7208 0.987532C17.2507 0.783608 17.8217 0.709299 18.3861 0.770799C18.9506 0.832299 19.4922 1.02783 19.9657 1.34108C20.4393 1.65434 20.8311 2.07625 21.1086 2.57166C21.386 3.06706 21.541 3.6216 21.5606 4.18905C21.5803 4.75651 21.464 5.32044 21.2215 5.83384C20.979 6.34725 20.6173 6.79526 20.1666 7.14052C21.2758 7.55444 22.2422 8.27931 22.95 9.22833C22.9943 9.28743 23.0266 9.35467 23.0449 9.42623C23.0632 9.49779 23.0673 9.57226 23.0568 9.64538C23.0464 9.71851 23.0217 9.78886 22.984 9.85242C22.9464 9.91599 22.8966 9.97151 22.8375 10.0158ZM17.7366 16.0346C17.7736 16.0985 17.7976 16.1692 17.8073 16.2424C17.8171 16.3157 17.8122 16.3901 17.7932 16.4615C17.7741 16.5329 17.7412 16.5998 17.6962 16.6585C17.6513 16.7171 17.5952 16.7663 17.5312 16.8033C17.446 16.8533 17.3489 16.8795 17.25 16.8793C17.1512 16.8793 17.0541 16.8534 16.9685 16.804C16.883 16.7546 16.8119 16.6836 16.7625 16.598C16.2736 15.7696 15.577 15.083 14.7417 14.6061C13.9063 14.1291 12.961 13.8782 11.9991 13.8782C11.0371 13.8782 10.0918 14.1291 9.25646 14.6061C8.4211 15.083 7.72457 15.7696 7.23563 16.598C7.20046 16.6652 7.15206 16.7247 7.09334 16.7727C7.03462 16.8207 6.96679 16.8564 6.89393 16.8775C6.82107 16.8987 6.74469 16.9048 6.66937 16.8957C6.59406 16.8865 6.52138 16.8622 6.4557 16.8243C6.39002 16.7863 6.3327 16.7355 6.28719 16.6748C6.24167 16.6141 6.2089 16.5448 6.19085 16.4711C6.1728 16.3974 6.16985 16.3209 6.18216 16.246C6.19447 16.1711 6.2218 16.0995 6.2625 16.0355C7.02866 14.7191 8.22827 13.7097 9.65625 13.1799C8.87621 12.6734 8.2808 11.9284 7.95884 11.0558C7.63687 10.1833 7.60562 9.23004 7.86972 8.33829C8.13383 7.44653 8.67915 6.66406 9.42434 6.10757C10.1695 5.55109 11.0746 5.25042 12.0047 5.25042C12.9347 5.25042 13.8399 5.55109 14.585 6.10757C15.3302 6.66406 15.8755 7.44653 16.1397 8.33829C16.4038 9.23004 16.3725 10.1833 16.0505 11.0558C15.7286 11.9284 15.1332 12.6734 14.3531 13.1799C15.7771 13.7115 16.9728 14.7204 17.7366 16.0346ZM12 12.7533C12.6304 12.7533 13.2467 12.5664 13.7709 12.2161C14.2951 11.8659 14.7036 11.3681 14.9449 10.7856C15.1861 10.2032 15.2492 9.5623 15.1263 8.94398C15.0033 8.32567 14.6997 7.75771 14.2539 7.31193C13.8081 6.86615 13.2402 6.56257 12.6219 6.43958C12.0035 6.31659 11.3626 6.37971 10.7802 6.62097C10.1978 6.86222 9.69994 7.27077 9.34969 7.79495C8.99944 8.31913 8.8125 8.9354 8.8125 9.56583C8.8125 10.4112 9.14832 11.222 9.7461 11.8197C10.3439 12.4175 11.1546 12.7533 12 12.7533ZM6.5625 7.31583C6.5625 7.16665 6.50324 7.02357 6.39775 6.91809C6.29226 6.8126 6.14918 6.75333 6 6.75333C5.54418 6.75319 5.09753 6.62524 4.71078 6.384C4.32402 6.14277 4.01266 5.79792 3.81204 5.38863C3.61143 4.97933 3.5296 4.52197 3.57585 4.06851C3.6221 3.61504 3.79458 3.18362 4.07369 2.82325C4.35281 2.46289 4.72738 2.188 5.15488 2.02982C5.58237 1.87163 6.04565 1.83649 6.49212 1.92837C6.93858 2.02025 7.35034 2.23549 7.68062 2.54962C8.01091 2.86376 8.24649 3.26422 8.36063 3.70552C8.37909 3.77705 8.41147 3.84424 8.4559 3.90326C8.50034 3.96228 8.55596 4.01196 8.6196 4.04949C8.68323 4.08701 8.75364 4.11162 8.82679 4.12194C8.89994 4.13225 8.97441 4.12805 9.04594 4.10958C9.11747 4.09112 9.18466 4.05874 9.24368 4.01431C9.30269 3.96987 9.35238 3.91425 9.3899 3.85061C9.42742 3.78697 9.45204 3.71657 9.46235 3.64342C9.47266 3.57027 9.46847 3.4958 9.45 3.42427C9.30861 2.87436 9.03782 2.36621 8.66021 1.94218C8.28261 1.51815 7.80911 1.19052 7.2792 0.986595C6.74929 0.78267 6.17831 0.708361 5.61386 0.769861C5.0494 0.831361 4.50782 1.02689 4.03426 1.34015C3.5607 1.6534 3.16887 2.07532 2.89144 2.57072C2.61401 3.06612 2.45901 3.62066 2.43936 4.18811C2.41971 4.75557 2.53598 5.3195 2.77848 5.83291C3.02098 6.34631 3.38268 6.79432 3.83344 7.13958C2.72411 7.55376 1.75771 8.27897 1.05 9.22833C1.00568 9.28743 0.973431 9.35467 0.955099 9.42623C0.936766 9.49779 0.932707 9.57226 0.943153 9.64538C0.9536 9.71851 0.978348 9.78886 1.01598 9.85242C1.05362 9.91599 1.10341 9.97151 1.1625 10.0158C1.22159 10.0602 1.28884 10.0924 1.3604 10.1107C1.43196 10.1291 1.50642 10.1331 1.57955 10.1227C1.65268 10.1122 1.72303 10.0875 1.78659 10.0498C1.85015 10.0122 1.90568 9.96243 1.95 9.90333C2.41941 9.27231 3.03044 8.76032 3.73388 8.4086C4.43733 8.05688 5.21353 7.87525 6 7.87833C6.14918 7.87833 6.29226 7.81907 6.39775 7.71358C6.50324 7.60809 6.5625 7.46502 6.5625 7.31583Z" fill="#52525B"/>
</g>
<defs>
<clipPath id="clip0_52_106">
<rect width="22.125" height="16.1509" fill="white" transform="translate(0.9375 0.748901)"/>
</clipPath>
</defs>
</svg>
