<svg width="24" height="24" viewBox="0 0 24 24" fill="none" xmlns="http://www.w3.org/2000/svg">
<path d="M20.4281 10.6334L12.9281 3.13337C12.8062 3.01148 12.6616 2.91479 12.5023 2.84882C12.3431 2.78285 12.1724 2.7489 12 2.7489C11.8276 2.7489 11.6569 2.78285 11.4977 2.84882C11.3385 2.91479 11.1938 3.01148 11.0719 3.13337L3.57188 10.6334C3.44967 10.755 3.35278 10.8997 3.28681 11.059C3.22083 11.2183 3.18708 11.3891 3.1875 11.5615V20.5615C3.1875 20.7107 3.24677 20.8538 3.35226 20.9592C3.45775 21.0647 3.60082 21.124 3.75 21.124H9.75C9.89919 21.124 10.0423 21.0647 10.1478 20.9592C10.2532 20.8538 10.3125 20.7107 10.3125 20.5615V15.124H13.6875V20.5615C13.6875 20.7107 13.7468 20.8538 13.8523 20.9592C13.9577 21.0647 14.1008 21.124 14.25 21.124H20.25C20.3992 21.124 20.5423 21.0647 20.6478 20.9592C20.7532 20.8538 20.8125 20.7107 20.8125 20.5615V11.5615C20.8129 11.3891 20.7792 11.2183 20.7132 11.059C20.6472 10.8997 20.5503 10.755 20.4281 10.6334ZM19.6875 19.999H14.8125V14.5615C14.8125 14.4123 14.7532 14.2692 14.6478 14.1637C14.5423 14.0583 14.3992 13.999 14.25 13.999H9.75C9.60082 13.999 9.45775 14.0583 9.35226 14.1637C9.24677 14.2692 9.1875 14.4123 9.1875 14.5615V19.999H4.3125V11.5615C4.31236 11.5368 4.31709 11.5124 4.32642 11.4895C4.33575 11.4667 4.3495 11.4459 4.36688 11.4284L11.8669 3.92837C11.8843 3.9108 11.905 3.89685 11.9279 3.88733C11.9507 3.87781 11.9753 3.87291 12 3.87291C12.0248 3.87291 12.0493 3.87781 12.0721 3.88733C12.095 3.89685 12.1157 3.9108 12.1331 3.92837L19.6331 11.4284C19.6505 11.4459 19.6643 11.4667 19.6736 11.4895C19.6829 11.5124 19.6876 11.5368 19.6875 11.5615V19.999Z" fill="#52525B"/>
</svg>
