<svg width="20" height="24" viewBox="0 0 20 24" fill="none" xmlns="http://www.w3.org/2000/svg">
<g clip-path="url(#clip0_52_122)">
<path d="M9.99906 8.0603C9.14613 8.0603 8.31235 8.31322 7.60316 8.78709C6.89398 9.26095 6.34123 9.93447 6.01483 10.7225C5.68843 11.5105 5.60302 12.3776 5.76942 13.2141C5.93582 14.0507 6.34655 14.8191 6.94966 15.4222C7.55278 16.0253 8.32119 16.436 9.15773 16.6024C9.99428 16.7688 10.8614 16.6834 11.6494 16.357C12.4374 16.0306 13.1109 15.4779 13.5848 14.7687C14.0586 14.0595 14.3116 13.2257 14.3116 12.3728C14.3101 11.2295 13.8552 10.1335 13.0468 9.32504C12.2384 8.51662 11.1423 8.06179 9.99906 8.0603ZM9.99906 15.5603C9.36863 15.5603 8.75236 15.3734 8.22818 15.0231C7.704 14.6729 7.29545 14.175 7.05419 13.5926C6.81294 13.0102 6.74982 12.3693 6.87281 11.7509C6.9958 11.1326 7.29938 10.5647 7.74516 10.1189C8.19094 9.67312 8.75889 9.36954 9.37721 9.24654C9.99552 9.12355 10.6364 9.18668 11.2189 9.42793C11.8013 9.66919 12.2991 10.0777 12.6494 10.6019C12.9996 11.1261 13.1866 11.7424 13.1866 12.3728C13.1866 13.2182 12.8507 14.0289 12.253 14.6267C11.6552 15.2245 10.8444 15.5603 9.99906 15.5603ZM18.0616 12.639C18.0672 12.4619 18.0672 12.2837 18.0616 12.1065L19.4987 10.3103C19.5537 10.2415 19.5917 10.1608 19.6098 10.0747C19.6279 9.98858 19.6255 9.8994 19.6028 9.81436C19.378 8.96693 19.0412 8.15321 18.6016 7.39467C18.5579 7.31769 18.4967 7.25209 18.4229 7.20322C18.3491 7.15435 18.2648 7.12358 18.1769 7.11342L15.8847 6.85936C15.7641 6.72999 15.6391 6.60499 15.5097 6.48436L15.2547 4.19124C15.2445 4.10331 15.2138 4.01903 15.1649 3.94523C15.116 3.87144 15.0504 3.81022 14.9734 3.76655C14.2158 3.32813 13.4034 2.99208 12.5575 2.76717C12.4722 2.7449 12.3829 2.74296 12.2968 2.76152C12.2107 2.78009 12.1301 2.81863 12.0616 2.87405L10.2616 4.31499C10.0844 4.30936 9.90625 4.30936 9.72906 4.31499L7.93656 2.87311C7.8678 2.81818 7.78711 2.78014 7.70097 2.76207C7.61484 2.744 7.52566 2.74639 7.44062 2.76905C6.59319 2.99391 5.77948 3.33062 5.02093 3.7703C4.94395 3.81397 4.87835 3.87519 4.82948 3.94898C4.78061 4.02278 4.74985 4.10706 4.73968 4.19499L4.48937 6.48717C4.36 6.60842 4.235 6.73342 4.11437 6.86217L1.82031 7.1228C1.73239 7.13296 1.6481 7.16373 1.57431 7.2126C1.50051 7.26147 1.43929 7.32706 1.39562 7.40405C0.957207 8.16166 0.621155 8.97405 0.396247 9.81999C0.374507 9.90419 0.37259 9.9923 0.390646 10.0774C0.408703 10.1624 0.44624 10.2422 0.500309 10.3103L1.94125 12.1103C1.93562 12.2875 1.93562 12.4656 1.94125 12.6428L0.499372 14.44C0.444438 14.5087 0.406405 14.5894 0.388331 14.6756C0.370258 14.7617 0.372648 14.8509 0.395309 14.9359C0.620562 15.7817 0.957261 16.5939 1.39656 17.3509C1.44023 17.4279 1.50145 17.4935 1.57524 17.5424C1.64904 17.5912 1.73332 17.622 1.82125 17.6322L4.11343 17.8862C4.23468 18.0156 4.35968 18.1406 4.48843 18.2612L4.74906 20.5515C4.75922 20.6395 4.78999 20.7238 4.83886 20.7976C4.88773 20.8713 4.95332 20.9326 5.03031 20.9762C5.78792 21.4146 6.60031 21.7507 7.44625 21.9756C7.53129 21.9983 7.62046 22.0007 7.7066 21.9826C7.79273 21.9645 7.87342 21.9265 7.94218 21.8715L9.73281 20.4353C9.91 20.4409 10.0881 20.4409 10.2653 20.4353L12.0662 21.8772C12.1661 21.9568 12.2901 22.0002 12.4178 22C12.4665 21.9998 12.515 21.9935 12.5622 21.9812C13.408 21.756 14.2201 21.4193 14.9772 20.98C15.0542 20.9363 15.1198 20.8751 15.1686 20.8013C15.2175 20.7275 15.2483 20.6432 15.2584 20.5553L15.5125 18.2631C15.6419 18.1425 15.7669 18.0175 15.8875 17.8881L18.1806 17.6331C18.2685 17.6229 18.3528 17.5922 18.4266 17.5433C18.5004 17.4944 18.5616 17.4288 18.6053 17.3519C19.0439 16.5943 19.3799 15.7819 19.6047 14.9359C19.6273 14.8509 19.6297 14.7617 19.6117 14.6756C19.5936 14.5894 19.5556 14.5087 19.5006 14.44L18.0616 12.639ZM17.7709 16.5419L15.5547 16.7884C15.4162 16.8044 15.2886 16.8712 15.1966 16.9759C15.0113 17.1847 14.8137 17.3822 14.605 17.5675C14.5003 17.6595 14.4335 17.7871 14.4175 17.9256L14.1709 20.1409C13.6521 20.4176 13.1069 20.6419 12.5434 20.8103L10.8025 19.4172C10.7027 19.3375 10.5787 19.2942 10.4509 19.2944H10.4172C10.1387 19.3103 9.85946 19.3103 9.58093 19.2944C9.44183 19.2859 9.30453 19.3293 9.19562 19.4162L7.45562 20.8103C6.89271 20.6409 6.34813 20.4158 5.83 20.1381L5.58343 17.9237C5.56747 17.7853 5.50065 17.6576 5.39593 17.5656C5.1872 17.3803 4.98967 17.1828 4.80437 16.974C4.71235 16.8693 4.58473 16.8025 4.44625 16.7865L2.23093 16.54C1.95451 16.0226 1.73028 15.479 1.56156 14.9172L2.95468 13.1762C3.04164 13.0673 3.08507 12.93 3.07656 12.7909C3.06062 12.5124 3.06062 12.2332 3.07656 11.9547C3.08507 11.8156 3.04164 11.6783 2.95468 11.5694L1.56156 9.82936C1.73092 9.26645 1.9561 8.72187 2.23375 8.20374L4.44812 7.95717C4.58661 7.94121 4.71423 7.87439 4.80625 7.76967C4.99154 7.56094 5.18908 7.3634 5.39781 7.17811C5.50253 7.08609 5.56934 6.95847 5.58531 6.81998L5.83187 4.60467C6.34926 4.32825 6.89288 4.10402 7.45468 3.9353L9.19562 5.32842C9.30453 5.41538 9.44183 5.45881 9.58093 5.4503C9.85946 5.43436 10.1387 5.43436 10.4172 5.4503C10.5563 5.45881 10.6936 5.41538 10.8025 5.32842L12.5425 3.9353C13.1054 4.10466 13.65 4.32984 14.1681 4.60749L14.4147 6.82374C14.4307 6.96222 14.4975 7.08984 14.6022 7.18186C14.8109 7.36715 15.0085 7.56469 15.1937 7.77342C15.2858 7.87814 15.4134 7.94496 15.5519 7.96092L17.7672 8.20749C18.0435 8.72427 18.2677 9.26726 18.4366 9.82842L17.0434 11.5694C16.9565 11.6783 16.9131 11.8156 16.9216 11.9547C16.9375 12.2332 16.9375 12.5124 16.9216 12.7909C16.9131 12.93 16.9565 13.0673 17.0434 13.1762L18.4366 14.9162C18.2678 15.4791 18.0432 16.0237 17.7662 16.5419H17.7709Z" fill="#52525B"/>
</g>
<defs>
<clipPath id="clip0_52_122">
<rect width="19.2473" height="23.2511" fill="white" transform="translate(0.376343 0.748901)"/>
</clipPath>
</defs>
</svg>
