<svg width="24" height="16" viewBox="0 0 24 16" fill="none" xmlns="http://www.w3.org/2000/svg">
<g clip-path="url(#clip0_52_110)">
<path d="M23.25 7.4989H22.3125V4.3114C22.3125 3.9633 22.1742 3.62946 21.9281 3.38332C21.6819 3.13718 21.3481 2.9989 21 2.9989H19.3125V2.0614C19.3125 1.7133 19.1742 1.37947 18.9281 1.13332C18.6819 0.887182 18.3481 0.748901 18 0.748901H15.75C15.4019 0.748901 15.0681 0.887182 14.8219 1.13332C14.5758 1.37947 14.4375 1.7133 14.4375 2.0614V7.4989H9.5625V2.0614C9.5625 1.7133 9.42422 1.37947 9.17808 1.13332C8.93194 0.887182 8.5981 0.748901 8.25 0.748901H6C5.6519 0.748901 5.31806 0.887182 5.07192 1.13332C4.82578 1.37947 4.6875 1.7133 4.6875 2.0614V2.9989H3C2.6519 2.9989 2.31806 3.13718 2.07192 3.38332C1.82578 3.62946 1.6875 3.9633 1.6875 4.3114V7.4989H0.75C0.600816 7.4989 0.457742 7.55817 0.352252 7.66365C0.246763 7.76914 0.1875 7.91222 0.1875 8.0614C0.1875 8.21059 0.246763 8.35366 0.352252 8.45915C0.457742 8.56464 0.600816 8.6239 0.75 8.6239H1.6875V11.8114C1.6875 12.1595 1.82578 12.4933 2.07192 12.7395C2.31806 12.9856 2.6519 13.1239 3 13.1239H4.6875V14.0614C4.6875 14.4095 4.82578 14.7433 5.07192 14.9895C5.31806 15.2356 5.6519 15.3739 6 15.3739H8.25C8.5981 15.3739 8.93194 15.2356 9.17808 14.9895C9.42422 14.7433 9.5625 14.4095 9.5625 14.0614V8.6239H14.4375V14.0614C14.4375 14.4095 14.5758 14.7433 14.8219 14.9895C15.0681 15.2356 15.4019 15.3739 15.75 15.3739H18C18.3481 15.3739 18.6819 15.2356 18.9281 14.9895C19.1742 14.7433 19.3125 14.4095 19.3125 14.0614V13.1239H21C21.3481 13.1239 21.6819 12.9856 21.9281 12.7395C22.1742 12.4933 22.3125 12.1595 22.3125 11.8114V8.6239H23.25C23.3992 8.6239 23.5423 8.56464 23.6477 8.45915C23.7532 8.35366 23.8125 8.21059 23.8125 8.0614C23.8125 7.91222 23.7532 7.76914 23.6477 7.66365C23.5423 7.55817 23.3992 7.4989 23.25 7.4989ZM3 11.9989C2.95027 11.9989 2.90258 11.9791 2.86742 11.944C2.83225 11.9088 2.8125 11.8611 2.8125 11.8114V4.3114C2.8125 4.26167 2.83225 4.21398 2.86742 4.17882C2.90258 4.14366 2.95027 4.1239 3 4.1239H4.6875V11.9989H3ZM8.4375 14.0614C8.4375 14.1111 8.41775 14.1588 8.38258 14.194C8.34742 14.2291 8.29973 14.2489 8.25 14.2489H6C5.95027 14.2489 5.90258 14.2291 5.86742 14.194C5.83225 14.1588 5.8125 14.1111 5.8125 14.0614V2.0614C5.8125 2.01167 5.83225 1.96398 5.86742 1.92882C5.90258 1.89366 5.95027 1.8739 6 1.8739H8.25C8.29973 1.8739 8.34742 1.89366 8.38258 1.92882C8.41775 1.96398 8.4375 2.01167 8.4375 2.0614V14.0614ZM18.1875 14.0614C18.1875 14.1111 18.1677 14.1588 18.1326 14.194C18.0974 14.2291 18.0497 14.2489 18 14.2489H15.75C15.7003 14.2489 15.6526 14.2291 15.6174 14.194C15.5823 14.1588 15.5625 14.1111 15.5625 14.0614V2.0614C15.5625 2.01167 15.5823 1.96398 15.6174 1.92882C15.6526 1.89366 15.7003 1.8739 15.75 1.8739H18C18.0497 1.8739 18.0974 1.89366 18.1326 1.92882C18.1677 1.96398 18.1875 2.01167 18.1875 2.0614V14.0614ZM21.1875 11.8114C21.1875 11.8611 21.1677 11.9088 21.1326 11.944C21.0974 11.9791 21.0497 11.9989 21 11.9989H19.3125V4.1239H21C21.0497 4.1239 21.0974 4.14366 21.1326 4.17882C21.1677 4.21398 21.1875 4.26167 21.1875 4.3114V11.8114Z" fill="#52525B"/>
</g>
<defs>
<clipPath id="clip0_52_110">
<rect width="23.625" height="14.625" fill="white" transform="translate(0.1875 0.748901)"/>
</clipPath>
</defs>
</svg>
